<svg width="45" height="45" viewBox="0 0 45 45" fill="none" xmlns="http://www.w3.org/2000/svg">
<path d="M30.7051 23.7253C30.9882 22.7812 32.5801 22.8722 33.1941 23.4628C33.856 24.6928 33.3451 26.6465 33.5035 28.65" stroke="url(#paint0_linear_94_29)" stroke-width="0.5" stroke-linecap="round" stroke-linejoin="round"/>
<path d="M33.5025 26.8894C31.1531 30.3113 27.7734 25.3069 31.9931 25.1082M14.6803 26.7122C15.7125 25.8394 16.8441 25.1279 17.4141 24.4238C17.2903 23.3063 15.3206 23.0251 14.4028 23.4301C10.6528 25.0857 13.9978 30.5166 17.115 27.841M18.8316 23.0232V28.9416M18.8316 24.0244C19.4756 23.3326 20.3719 22.9829 21.2597 23.4357M24.1856 13.6107C26.8763 18.0301 29.0831 23.5791 27.81 28.8226M24.1856 13.6107C23.2772 15.031 23.1853 17.0166 24.2925 18.4013M24.1856 13.6107C22.6256 12.1707 21.3356 14.5801 21.8466 16.006M24.1856 13.6107C23.3784 11.1826 25.6856 9.58224 26.8556 12.1829" stroke="url(#paint1_linear_94_29)" stroke-width="0.5" stroke-linecap="round" stroke-linejoin="round"/>
<path d="M20.4141 12.0207C21.7406 10.0163 23.7225 11.8716 24.1856 13.6107C26.2153 11.5622 26.8406 14.6382 27.0075 16.2403M22.6659 23.9719C22.95 23.0269 24.5409 23.1188 25.1559 23.7094C25.8178 24.9385 25.3069 26.8922 25.4653 28.8957" stroke="url(#paint2_linear_94_29)" stroke-width="0.5" stroke-linecap="round" stroke-linejoin="round"/>
<path d="M25.4644 27.135C23.115 30.5569 19.7353 25.5525 23.955 25.3538M4.21875 30.9938C5.34938 31.1775 6.9075 30.5925 7.76063 29.8641C10.0359 31.6641 13.3125 31.8216 15.8034 30.2259" stroke="url(#paint3_linear_94_29)" stroke-width="0.5" stroke-linecap="round" stroke-linejoin="round"/>
<path d="M15.8025 30.2259C17.7056 31.7034 20.7103 31.1381 22.7362 29.9371C24.4331 31.7025 27.7303 31.2721 29.5809 29.864C31.2497 31.4512 34.5103 31.02 36.0628 29.445C37.2553 30.6468 39.2662 30.5184 40.7812 30.0412M8.33154 33.135C10.2975 34.3612 13.6406 34.6331 15.2531 32.7628C16.725 34.74 20.8837 34.4925 22.4325 32.7215C24.3572 34.4934 28.1334 33.9787 29.9044 32.13C31.095 34.08 34.7709 33.7621 35.9606 31.9743M8.33717 18.6346V28.649M11.8678 23.2406C7.51498 22.8225 7.16342 28.3237 11.6653 28.1475" stroke="url(#paint4_linear_94_29)" stroke-width="0.5" stroke-linecap="round" stroke-linejoin="round"/>
<defs>
<linearGradient id="paint0_linear_94_29" x1="32.1245" y1="23.0167" x2="32.1245" y2="28.65" gradientUnits="userSpaceOnUse">
<stop stop-color="#7ECFFE"/>
<stop offset="1"/>
</linearGradient>
<linearGradient id="paint1_linear_94_29" x1="23.1223" y1="10.8501" x2="23.1223" y2="28.9416" gradientUnits="userSpaceOnUse">
<stop stop-color="#7ECFFE"/>
<stop offset="1"/>
</linearGradient>
<linearGradient id="paint2_linear_94_29" x1="23.7108" y1="11.1509" x2="23.7108" y2="28.8957" gradientUnits="userSpaceOnUse">
<stop stop-color="#7ECFFE"/>
<stop offset="1"/>
</linearGradient>
<linearGradient id="paint3_linear_94_29" x1="14.8416" y1="25.3538" x2="14.8416" y2="31.3258" gradientUnits="userSpaceOnUse">
<stop stop-color="#7ECFFE"/>
<stop offset="1"/>
</linearGradient>
<linearGradient id="paint4_linear_94_29" x1="24.5564" y1="18.6346" x2="24.5564" y2="34.1498" gradientUnits="userSpaceOnUse">
<stop stop-color="#7ECFFE"/>
<stop offset="1"/>
</linearGradient>
</defs>
</svg>
