<svg width="45" height="45" viewBox="0 0 45 45" fill="none" xmlns="http://www.w3.org/2000/svg">
<path d="M33.75 20.625H11.25V11.25H33.75M30.9375 31.875C30.1916 31.875 29.4762 31.5787 28.9488 31.0512C28.4213 30.5238 28.125 29.8084 28.125 29.0625C28.125 28.3166 28.4213 27.6012 28.9488 27.0738C29.4762 26.5463 30.1916 26.25 30.9375 26.25C31.6834 26.25 32.3988 26.5463 32.9262 27.0738C33.4537 27.6012 33.75 28.3166 33.75 29.0625C33.75 29.8084 33.4537 30.5238 32.9262 31.0512C32.3988 31.5787 31.6834 31.875 30.9375 31.875ZM14.0625 31.875C13.3166 31.875 12.6012 31.5787 12.0738 31.0512C11.5463 30.5238 11.25 29.8084 11.25 29.0625C11.25 28.3166 11.5463 27.6012 12.0738 27.0738C12.6012 26.5463 13.3166 26.25 14.0625 26.25C14.8084 26.25 15.5238 26.5463 16.0512 27.0738C16.5787 27.6012 16.875 28.3166 16.875 29.0625C16.875 29.8084 16.5787 30.5238 16.0512 31.0512C15.5238 31.5787 14.8084 31.875 14.0625 31.875ZM7.5 30C7.5 31.65 8.23125 33.1312 9.375 34.1625V37.5C9.375 37.9973 9.57254 38.4742 9.92418 38.8258C10.2758 39.1775 10.7527 39.375 11.25 39.375H13.125C13.6223 39.375 14.0992 39.1775 14.4508 38.8258C14.8025 38.4742 15 37.9973 15 37.5V35.625H30V37.5C30 37.9973 30.1975 38.4742 30.5492 38.8258C30.9008 39.1775 31.3777 39.375 31.875 39.375H33.75C34.2473 39.375 34.7242 39.1775 35.0758 38.8258C35.4275 38.4742 35.625 37.9973 35.625 37.5V34.1625C36.7688 33.1312 37.5 31.65 37.5 30V11.25C37.5 4.6875 30.7875 3.75 22.5 3.75C14.2125 3.75 7.5 4.6875 7.5 11.25V30Z" fill="url(#paint0_linear_94_7)"/>
<defs>
<linearGradient id="paint0_linear_94_7" x1="22.5" y1="3.75" x2="22.5" y2="39.375" gradientUnits="userSpaceOnUse">
<stop stop-color="#7ECFFE"/>
<stop offset="1"/>
</linearGradient>
</defs>
</svg>
